<svg width="156" height="44" viewBox="0 0 156 44" fill="none" xmlns="http://www.w3.org/2000/svg">
<path d="M68.14 23.6954C68.14 25.9154 67.77 27.8554 67.03 29.5154C66.31 31.1554 65.2 32.4354 63.7 33.3554C62.2 34.2754 60.28 34.7354 57.94 34.7354C55.62 34.7354 53.7 34.2754 52.18 33.3554C50.68 32.4354 49.56 31.1454 48.82 29.4854C48.1 27.8254 47.74 25.8854 47.74 23.6654C47.74 21.4454 48.1 19.5154 48.82 17.8754C49.56 16.2354 50.68 14.9654 52.18 14.0654C53.7 13.1454 55.63 12.6854 57.97 12.6854C60.29 12.6854 62.2 13.1454 63.7 14.0654C65.2 14.9654 66.31 16.2454 67.03 17.9054C67.77 19.5454 68.14 21.4754 68.14 23.6954ZM52.51 23.6954C52.51 25.9354 52.94 27.7054 53.8 29.0054C54.66 30.2854 56.04 30.9254 57.94 30.9254C59.88 30.9254 61.27 30.2854 62.11 29.0054C62.95 27.7054 63.37 25.9354 63.37 23.6954C63.37 21.4354 62.95 19.6654 62.11 18.3854C61.27 17.1054 59.89 16.4654 57.97 16.4654C56.05 16.4654 54.66 17.1054 53.8 18.3854C52.94 19.6654 52.51 21.4354 52.51 23.6954ZM98.594 13.0154L93.134 34.4354H87.974L85.064 23.1854C85.004 22.9654 84.924 22.6354 84.824 22.1954C84.744 21.7554 84.644 21.2754 84.524 20.7554C84.424 20.2354 84.334 19.7454 84.254 19.2854C84.174 18.8054 84.114 18.4354 84.074 18.1754C84.054 18.4354 83.994 18.8054 83.894 19.2854C83.814 19.7454 83.724 20.2354 83.624 20.7554C83.524 21.2554 83.424 21.7354 83.324 22.1954C83.224 22.6354 83.144 22.9754 83.084 23.2154L80.204 34.4354H75.044L69.584 13.0154H74.054L76.784 24.7154C76.904 25.1754 77.034 25.7554 77.174 26.4554C77.314 27.1554 77.444 27.8554 77.564 28.5554C77.684 29.2554 77.774 29.8454 77.834 30.3254C77.894 29.8254 77.984 29.2354 78.104 28.5554C78.224 27.8554 78.344 27.1854 78.464 26.5454C78.604 25.8854 78.724 25.3754 78.824 25.0154L81.944 13.0154H86.234L89.354 25.0154C89.454 25.3554 89.564 25.8554 89.684 26.5154C89.824 27.1754 89.954 27.8554 90.074 28.5554C90.194 29.2554 90.284 29.8454 90.344 30.3254C90.404 29.8254 90.494 29.2354 90.614 28.5554C90.734 27.8554 90.864 27.1554 91.004 26.4554C91.164 25.7554 91.294 25.1754 91.394 24.7154L94.124 13.0154H98.594ZM101.288 34.4354V13.0154H105.818V30.6854H114.518V34.4354H101.288Z" fill="#7653FC"/>
<path d="M125.352 32.8354C125.72 32.8354 126.056 32.8114 126.36 32.7634C126.68 32.7154 126.968 32.6434 127.224 32.5474V33.3394C126.968 33.4354 126.68 33.5154 126.36 33.5794C126.04 33.6434 125.68 33.6754 125.28 33.6754C124.176 33.6754 123.384 33.3634 122.904 32.7394C122.424 32.1154 122.184 31.2034 122.184 30.0034V21.5314H120.264V20.9074L122.184 20.6914L122.472 17.6194H123.12V20.7154H127.152V21.5314H123.12V29.9314C123.12 30.8754 123.28 31.5954 123.6 32.0914C123.936 32.5874 124.52 32.8354 125.352 32.8354ZM140.403 27.0754C140.403 28.3554 140.195 29.4914 139.779 30.4834C139.379 31.4754 138.763 32.2594 137.931 32.8354C137.099 33.3954 136.059 33.6754 134.811 33.6754C133.611 33.6754 132.595 33.3954 131.763 32.8354C130.947 32.2754 130.323 31.4994 129.891 30.5074C129.475 29.5154 129.267 28.3714 129.267 27.0754C129.267 25.0434 129.763 23.4354 130.755 22.2514C131.763 21.0674 133.155 20.4754 134.931 20.4754C136.195 20.4754 137.227 20.7634 138.027 21.3394C138.827 21.9154 139.419 22.6994 139.803 23.6914C140.203 24.6834 140.403 25.8114 140.403 27.0754ZM130.227 27.0754C130.227 28.7874 130.603 30.1794 131.355 31.2514C132.107 32.3074 133.259 32.8354 134.811 32.8354C135.883 32.8354 136.763 32.5954 137.451 32.1154C138.139 31.6194 138.643 30.9394 138.963 30.0754C139.283 29.2114 139.443 28.2114 139.443 27.0754C139.443 25.9874 139.291 25.0114 138.987 24.1474C138.683 23.2834 138.195 22.5954 137.523 22.0834C136.867 21.5714 136.003 21.3154 134.931 21.3154C133.411 21.3154 132.243 21.8274 131.427 22.8514C130.627 23.8594 130.227 25.2674 130.227 27.0754ZM149.452 20.4754C151.116 20.4754 152.388 21.0274 153.268 22.1314C154.164 23.2354 154.612 24.8514 154.612 26.9794C154.612 29.1234 154.14 30.7794 153.196 31.9474C152.252 33.0994 150.94 33.6754 149.26 33.6754C148.06 33.6754 147.1 33.4034 146.38 32.8594C145.676 32.3154 145.18 31.6594 144.892 30.8914H144.844C144.86 31.3714 144.868 31.8674 144.868 32.3794C144.884 32.8754 144.892 33.3554 144.892 33.8194V39.0514H143.98V20.7154H144.748L144.844 23.4994H144.892C145.084 22.9714 145.38 22.4834 145.78 22.0354C146.18 21.5714 146.684 21.1954 147.292 20.9074C147.9 20.6194 148.62 20.4754 149.452 20.4754ZM149.38 21.3154C147.892 21.3154 146.772 21.8114 146.02 22.8034C145.284 23.7794 144.908 25.1714 144.892 26.9794V27.1234C144.892 29.0594 145.268 30.4994 146.02 31.4434C146.772 32.3714 147.836 32.8354 149.212 32.8354C150.62 32.8354 151.708 32.3314 152.476 31.3234C153.26 30.3154 153.652 28.8674 153.652 26.9794C153.652 23.2034 152.228 21.3154 149.38 21.3154Z" fill="#7653FC"/>
<path d="M45.5 1.74391C45.5 1.0926 44.9084 0.564575 44.1787 0.564575C43.449 0.564575 42.8574 1.0926 42.8574 1.74391C42.8574 3.02254 41.607 4.10266 40.1268 4.10266H34.1665C30.7685 2.55891 26.8981 1.74399 22.95 1.74399C19.0019 1.74399 15.1315 2.55891 11.7335 4.10266H5.78939C4.30047 4.10274 3.0426 3.02254 3.0426 1.74391C3.0426 1.0926 2.45102 0.564575 1.72131 0.564575C0.99161 0.564575 0.400024 1.0926 0.400024 1.74391V5.28199C0.400024 7.46997 1.3702 9.53176 3.13227 11.0935C1.34166 13.7063 0.400024 16.569 0.400024 19.4341C0.400024 29.1884 10.5159 37.1241 22.95 37.1241C35.3841 37.1241 45.5 29.1884 45.5 19.4341C45.5 16.5734 44.5611 13.7145 42.7753 11.1048C44.4582 9.61086 45.5 7.55205 45.5 5.28207V1.74391ZM22.9501 4.10274C25.055 4.10274 27.1328 4.36093 29.1092 4.86026C27.6334 5.38813 26.2788 6.18253 25.1214 7.21712C24.2395 8.00547 23.5144 8.89594 22.9581 9.85812C22.4019 8.89594 21.6767 8.00547 20.7948 7.21712C19.6357 6.18096 18.2788 5.38577 16.8004 4.8579C18.774 4.36015 20.8485 4.10274 22.9501 4.10274ZM22.95 23.682C23.4442 24.4139 24.0619 25.072 24.7773 25.6335L22.95 28.7097L21.1228 25.6335C21.8381 25.072 22.4559 24.4139 22.95 23.682ZM15.0223 25.3308C11.3795 25.3308 8.41584 22.6855 8.41584 19.4341C8.41584 16.1827 11.3795 13.5374 15.0223 13.5374C18.6651 13.5374 21.6287 16.1827 21.6287 19.4341C21.6287 22.6855 18.6651 25.3308 15.0223 25.3308ZM24.2713 19.4341C24.2713 19.3403 24.2744 19.2471 24.2792 19.1543C24.2884 19.098 24.2947 19.0407 24.2946 18.9821V18.9596C24.5665 15.9294 27.414 13.5374 30.8778 13.5374C34.5205 13.5374 37.4842 16.1827 37.4842 19.4341C37.4842 22.6855 34.5205 25.3308 30.8778 25.3308C27.235 25.3308 24.2713 22.6855 24.2713 19.4341ZM3.06885 5.80593C3.89008 6.23332 4.82335 6.4614 5.78939 6.4614H12.0371H12.0435H12.3797C14.8529 6.4614 17.1773 7.32169 18.9248 8.88376C20.3665 10.1725 21.2717 11.8112 21.5425 13.5847C20.0529 12.2618 18.0625 11.3883 15.8506 11.2122C15.7516 11.1911 15.6489 11.1787 15.5428 11.1787H9.75316C8.30979 11.1787 6.97203 10.7755 5.87633 10.0916C5.80568 10.0187 5.72517 9.95168 5.6325 9.89421C5.57076 9.85592 5.50628 9.82424 5.44048 9.79648C4.11813 8.81952 3.22952 7.40322 3.06885 5.80593ZM42.8574 19.4341C42.8574 27.8878 33.927 34.7654 22.95 34.7654C11.973 34.7654 3.0426 27.8878 3.0426 19.4341C3.0426 17.0745 3.80543 14.7032 5.25858 12.5137C6.29887 13.0225 7.43791 13.3501 8.62549 13.4773C6.8687 14.9808 5.77327 17.0953 5.77327 19.4341C5.77327 23.9861 9.92238 27.6894 15.0223 27.6894C16.4065 27.6894 17.7203 27.4161 18.9004 26.9277L21.7826 31.7799C22.0118 32.1656 22.4609 32.4068 22.95 32.4068C23.4392 32.4068 23.8882 32.1656 24.1174 31.7799L26.9997 26.9277C28.1798 27.4161 29.4937 27.6894 30.8778 27.6894C35.9777 27.6894 40.1268 23.9861 40.1268 19.4341C40.1268 17.096 39.032 14.982 37.2761 13.4785C38.4851 13.3509 39.6239 13.0185 40.6466 12.5214C42.0964 14.7088 42.8574 17.0775 42.8574 19.4341ZM40.4386 9.81543C40.3823 9.84051 40.3269 9.86811 40.2738 9.90105C40.1883 9.95404 40.1131 10.0151 40.0463 10.0813C38.9502 10.7713 37.6098 11.1787 36.1629 11.1787H30.3733C30.2702 11.1787 30.1703 11.1902 30.0741 11.2102C27.8613 11.381 25.8692 12.2499 24.376 13.5685C24.6498 11.8012 25.554 10.1685 26.9913 8.88368C28.7388 7.32161 31.0632 6.46133 33.5364 6.46133H33.8353C33.8382 6.46133 33.8411 6.46156 33.844 6.46156C33.8466 6.46156 33.8492 6.46133 33.8517 6.46133H40.1268C41.0874 6.46133 42.0147 6.23544 42.8306 5.81222C42.6675 7.41753 41.7705 8.83918 40.4386 9.81543Z" fill="#7653FC"/>
<path d="M15.25 16.6835L16.3614 19.2744H19.9578L17.0482 20.8758L18.1596 23.4667L15.25 21.8654L12.3405 23.4667L13.4519 20.8758L10.5423 19.2744H14.1387L15.25 16.6835Z" fill="#7653FC"/>
<path d="M30.65 16.6835L31.7614 19.2744H35.3577L32.4482 20.8758L33.5595 23.4667L30.65 21.8654L27.7405 23.4667L28.8518 20.8758L25.9423 19.2744H29.5387L30.65 16.6835Z" fill="#7653FC"/>
</svg>
