<svg width="27" height="23" viewBox="0 0 27 23" fill="#787D85" xmlns="http://www.w3.org/2000/svg">
<path d="M16.699 4.16813L7.71388 8.08845L4.14246 6.59091L12.9691 2.87659C13.1671 2.79081 13.4047 2.79081 13.6126 2.87659L16.699 4.16813Z" />
<path d="M22.4476 6.59094L13.3049 10.4508L9.88117 9.01302L9.38617 8.79858L18.3811 4.87897L18.8761 5.0927L22.4476 6.59094Z" />
<path d="M12.5723 11.563L12.5624 19.6856L3.80586 15.7913C3.55836 15.6802 3.39996 15.4573 3.39996 15.2176V7.70319L7.11081 9.26119V12.0003C7.11081 12.3512 7.44741 12.6423 7.85331 12.6423C8.25921 12.6423 8.59581 12.3512 8.59581 12.0003V9.89465L9.09081 10.1L12.5723 11.563Z" />
<path d="M23.1901 7.71161L14.0573 11.5546L14.0474 19.6771L23.2 15.6043L23.1901 7.71161Z" />
</svg>
