<svg width="27" height="23" viewBox="0 0 27 23" fill="#787D85" xmlns="http://www.w3.org/2000/svg">
<path d="M5.76534 3.74976C5.76475 3.74976 5.76408 3.74976 5.76349 3.74976C5.55541 3.74976 5.35971 3.81888 5.21193 3.9445C5.06252 4.07151 4.98022 4.24063 4.98022 4.42066V14.4808C4.98022 14.8497 5.33378 15.1506 5.76845 15.1515C7.6009 15.1553 10.671 15.4807 12.7889 17.3695V6.84131C12.7889 6.71626 12.7514 6.59878 12.6807 6.50156C10.9424 4.11589 7.60194 3.75342 5.76534 3.74976Z" />
<path d="M21.8199 14.4808V4.4206C21.8199 4.24057 21.7376 4.07145 21.5881 3.94444C21.4404 3.81882 21.2445 3.74969 21.0367 3.74969C21.036 3.74969 21.0353 3.74969 21.0347 3.74969C19.1982 3.75342 15.8578 4.11589 14.1194 6.50156C14.0486 6.59878 14.0112 6.71626 14.0112 6.84131V17.3695C16.1292 15.4807 19.1992 15.1552 21.0317 15.1515C21.4663 15.1505 21.8199 14.8496 21.8199 14.4808Z" />
<path d="M23.6129 6.06976H23.0421V14.4808C23.0421 15.4227 22.1416 16.1908 21.0346 16.1931C19.4803 16.1962 16.9175 16.4553 15.1024 17.9192C18.2415 17.2642 21.5507 17.69 23.4367 18.0563C23.6721 18.102 23.9155 18.0547 24.1042 17.9266C24.2922 17.7988 24.4 17.6077 24.4 17.4026V6.74054C24.4001 6.37069 24.0469 6.06976 23.6129 6.06976Z" />
<path d="M3.75795 14.4808V6.06976H3.18714C2.75321 6.06976 2.40002 6.37069 2.40002 6.74054V17.4024C2.40002 17.6076 2.50788 17.7986 2.69588 17.9264C2.8844 18.0545 3.12751 18.1019 3.36336 18.0561C5.24929 17.6898 8.55856 17.264 11.6975 17.919C9.88257 16.4551 7.31974 16.1962 5.76544 16.193C4.65855 16.1908 3.75795 15.4227 3.75795 14.4808Z" />
</svg>
